<?xml version="1.0" encoding="UTF-8" standalone="no" ?>
<!DOCTYPE svg PUBLIC "-//W3C//DTD SVG 1.1//EN" "http://www.w3.org/Graphics/SVG/1.1/DTD/svg11.dtd">
<svg xmlns="http://www.w3.org/2000/svg" xmlns:xlink="http://www.w3.org/1999/xlink" version="1.1" width="1024" height="599" viewBox="0 0 1024 599" xml:space="preserve">
<desc>Created with Fabric.js 4.4.0</desc>
<defs>
</defs>
<g transform="matrix(1.5058823529411764 0 0 1.5058823529411762 511.2470588235294 298.91764705882355)" id="background-74b80654-215b-41ef-8718-1c0869cedafe"  >
<rect style="stroke: none; stroke-width: 0; stroke-dasharray: none; stroke-linecap: butt; stroke-dashoffset: 0; stroke-linejoin: miter; stroke-miterlimit: 4; fill: rgb(0,0,0); fill-rule: nonzero; opacity: 1;"  paint-order="stroke"  x="-340" y="-199" rx="0" ry="0" width="680" height="398" />
</g>
<g transform="matrix(1.5058823529411764 0 0 1.5058823529411762 258.91142930616104 159.01994288183644)" id="text-logo"  >
<g style=""  paint-order="stroke"   >
		<g transform="matrix(1 0 0 1 0 0)" id="text-logo-path-0"  >
<path style="stroke: none; stroke-width: 0; stroke-dasharray: none; stroke-linecap: butt; stroke-dashoffset: 0; stroke-linejoin: miter; stroke-miterlimit: 4; fill: rgb(255,255,255); fill-rule: nonzero; opacity: 1;"  paint-order="stroke"  transform=" translate(-123.42, 18.845)" d="M 9.86 0 L 5.81 0 L 5.81 -37.69 L 21.75 -37.69 L 21.75 -34.21 L 9.86 -34.21 L 9.86 -20.87 L 19.43 -20.87 L 19.43 -17.39 L 9.86 -17.39 L 9.86 0 Z M 29.25 -7.25 L 29.25 -7.25 L 29.25 -37.69 L 33.33 -37.69 L 33.33 -7.25 Q 33.33 -5.04 34.28 -3.82 Q 35.23 -2.61 37.78 -2.61 Q 40.33 -2.61 42.48 -4.57 Q 44.63 -6.54 44.63 -8.41 L 44.63 -8.41 L 44.63 -37.69 L 48.68 -37.69 L 48.68 0 L 46.96 0 L 45.45 -3.71 Q 44.18 -1.61 42.17 -0.37 Q 40.16 0.88 37.78 0.88 L 37.78 0.88 Q 29.25 0.88 29.25 -7.25 Z M 74.96 0 L 60.29 0 L 60.29 -37.69 L 64.34 -37.69 L 64.34 -3.48 L 74.96 -3.48 L 74.96 0 Z M 96.57 0 L 81.9 0 L 81.9 -37.69 L 85.95 -37.69 L 85.95 -3.48 L 96.57 -3.48 L 96.57 0 Z M 120.9 0 L 116.85 0 L 116.85 -37.69 L 120.9 -37.69 L 133.5 -8.69 L 133.5 -37.69 L 137.55 -37.69 L 137.55 0 L 133.5 0 L 120.9 -29 L 120.9 0 Z M 147.97 -7.25 L 147.97 -7.25 L 147.97 -13.06 Q 147.97 -21.18 156.33 -21.18 L 156.33 -21.18 L 163.04 -21.18 L 163.04 -30.67 Q 163.04 -32.77 161.71 -33.93 Q 160.38 -35.09 157.77 -35.09 L 157.77 -35.09 Q 152.62 -35.09 152.62 -30.67 L 152.62 -30.67 L 152.62 -27.27 L 148.54 -27.27 L 148.54 -30.44 Q 148.54 -34.32 150.83 -36.45 Q 153.13 -38.57 157.77 -38.57 Q 162.42 -38.57 164.77 -36.45 Q 167.12 -34.32 167.12 -30.44 L 167.12 -30.44 L 167.12 0 L 165.36 0 L 163.86 -3.71 Q 162.64 -1.61 160.68 -0.37 Q 158.71 0.88 156.33 0.88 L 156.33 0.88 Q 147.97 0.88 147.97 -7.25 Z M 152.02 -13.06 L 152.02 -7.25 Q 152.02 -5.04 152.96 -3.82 Q 153.89 -2.61 156.33 -2.61 Q 158.76 -2.61 160.85 -4.49 Q 162.93 -6.37 163.04 -8.24 L 163.04 -8.24 L 163.04 -17.7 L 156.33 -17.7 Q 153.89 -17.7 152.96 -16.48 Q 152.02 -15.26 152.02 -13.06 L 152.02 -13.06 Z M 182.18 0 L 178.13 0 L 178.13 -37.69 L 179.86 -37.69 L 181.31 -33.98 Q 182.52 -36.08 184.51 -37.33 Q 186.49 -38.57 188.81 -38.57 L 188.81 -38.57 Q 194.67 -38.57 196.29 -34.32 L 196.29 -34.32 Q 199.06 -38.57 203.59 -38.57 L 203.59 -38.57 Q 211.78 -38.57 211.78 -30.44 L 211.78 -30.44 L 211.78 0 L 207.7 0 L 207.7 -30.44 Q 207.7 -35.09 203.54 -35.09 L 203.54 -35.09 Q 201.1 -35.09 199.04 -33.12 Q 196.97 -31.15 196.97 -29.28 L 196.97 -29.28 L 196.97 0 L 192.92 0 L 192.92 -30.44 Q 192.92 -35.09 188.75 -35.09 L 188.75 -35.09 Q 186.32 -35.09 184.25 -33.21 Q 182.18 -31.32 182.18 -29.45 L 182.18 -29.45 L 182.18 0 Z M 221.89 -7.25 L 221.89 -7.25 L 221.89 -30.44 Q 221.89 -34.32 224.27 -36.45 Q 226.65 -38.57 231.41 -38.57 Q 236.16 -38.57 238.6 -36.45 Q 241.03 -34.32 241.03 -30.44 L 241.03 -30.44 L 241.03 -17.7 L 225.94 -17.7 L 225.94 -7.25 Q 225.94 -2.61 231.46 -2.61 Q 236.98 -2.61 236.98 -7.25 L 236.98 -7.25 L 236.98 -10.45 L 241.03 -10.45 L 241.03 -7.25 Q 241.03 -3.37 238.66 -1.25 Q 236.28 0.88 231.52 0.88 Q 226.76 0.88 224.33 -1.25 Q 221.89 -3.37 221.89 -7.25 Z M 225.94 -30.44 L 225.94 -21.18 L 236.98 -21.18 L 236.98 -30.44 Q 236.98 -35.09 231.46 -35.09 Q 225.94 -35.09 225.94 -30.44 L 225.94 -30.44 Z" stroke-linecap="round" />
</g>
</g>
</g>
<g transform="matrix(1.5058823529411764 0 0 1.5058823529411762 114.54819401204355 237.90726290807214)" id="tagline-89f70867-8e2f-4e03-87e7-9e8bd6ddb863-logo"  >
<g style=""  paint-order="stroke"   >
		<g transform="matrix(1 0 0 1 0 0)" id="tagline-89f70867-8e2f-4e03-87e7-9e8bd6ddb863-logo-path-0"  >
<path style="stroke: none; stroke-width: 0; stroke-dasharray: none; stroke-linecap: butt; stroke-dashoffset: 0; stroke-linejoin: miter; stroke-miterlimit: 4; fill: rgb(255,255,255); fill-rule: nonzero; opacity: 1;"  paint-order="stroke"  transform=" translate(-24.555, 11.049999999999999)" d="M 2.89 -4.25 L 2.89 -4.25 L 2.89 -17.85 Q 2.89 -20.12 4.28 -21.37 Q 5.68 -22.61 8.47 -22.61 Q 11.26 -22.61 12.68 -21.37 Q 14.11 -20.12 14.11 -17.85 L 14.11 -17.85 L 14.11 -14.63 L 11.74 -14.63 L 11.74 -17.85 Q 11.74 -20.57 8.5 -20.57 Q 5.26 -20.57 5.26 -17.85 L 5.26 -17.85 L 5.26 -4.25 Q 5.26 -1.53 8.5 -1.53 Q 11.74 -1.53 11.74 -4.25 L 11.74 -4.25 L 11.74 -6.13 L 14.11 -6.13 L 14.11 -4.25 Q 14.11 -1.98 12.72 -0.73 Q 11.32 0.51 8.53 0.51 Q 5.74 0.51 4.32 -0.73 Q 2.89 -1.98 2.89 -4.25 Z M 30.08 0 L 20.05 0 L 20.05 -22.1 L 29.73 -22.1 L 29.73 -20.05 L 22.43 -20.05 L 22.43 -12.24 L 28.39 -12.24 L 28.39 -10.19 L 22.43 -10.19 L 22.43 -2.04 L 30.08 -2.04 L 30.08 0 Z M 34.66 -4.25 L 34.66 -4.25 L 34.66 -17.85 Q 34.66 -20.12 36.11 -21.37 Q 37.55 -22.61 40.42 -22.61 Q 43.3 -22.61 44.76 -21.37 Q 46.22 -20.12 46.22 -17.85 L 46.22 -17.85 L 46.22 -4.25 Q 46.22 -1.98 44.77 -0.73 Q 43.33 0.51 40.46 0.51 Q 37.59 0.51 36.13 -0.73 Q 34.66 -1.98 34.66 -4.25 Z M 37.04 -17.85 L 37.04 -4.25 Q 37.04 -1.53 40.44 -1.53 Q 43.84 -1.53 43.84 -4.25 L 43.84 -4.25 L 43.84 -17.85 Q 43.84 -20.57 40.44 -20.57 Q 37.04 -20.57 37.04 -17.85 L 37.04 -17.85 Z" stroke-linecap="round" />
</g>
</g>
</g>
<g transform="matrix(1.5058823529411764 0 0 1.5058823529411762 87.52944401204371 359.35581243575086)" id="tagline-44b23ec9-c68a-4623-835e-888871984792-logo"  >
<g style=""  paint-order="stroke"   >
		<g transform="matrix(1 0 0 1 0 0)" id="tagline-44b23ec9-c68a-4623-835e-888871984792-logo-path-0"  >
<path style="stroke: rgb(255,255,255); stroke-width: 0; stroke-dasharray: none; stroke-linecap: butt; stroke-dashoffset: 0; stroke-linejoin: miter; stroke-miterlimit: 4; fill: rgb(255,255,255); fill-rule: nonzero; opacity: 1;"  paint-order="stroke"  transform=" translate(-6.615, 8.775)" d="M 4.32 0 L 2.43 0 L 2.43 -17.55 L 6.51 -17.55 Q 8.62 -17.55 9.71 -16.55 Q 10.8 -15.56 10.8 -13.76 L 10.8 -13.76 L 10.8 -9.18 Q 10.8 -7.37 9.72 -6.39 Q 8.64 -5.41 6.51 -5.41 L 6.51 -5.41 L 4.32 -5.41 L 4.32 0 Z M 4.32 -15.93 L 4.32 -7.01 L 6.51 -7.01 Q 8.91 -7.01 8.91 -9.18 L 8.91 -9.18 L 8.91 -13.76 Q 8.91 -14.79 8.29 -15.36 Q 7.67 -15.93 6.51 -15.93 L 6.51 -15.93 L 4.32 -15.93 Z" stroke-linecap="round" />
</g>
</g>
</g>
<g transform="matrix(1.5058823529411764 0 0 1.5058823529411762 87.63863518851423 412.334372718134)" id="tagline-3329eacd-a3f7-4970-9aa8-94d0e4bbc252-logo"  >
<g style=""  paint-order="stroke"   >
		<g transform="matrix(1 0 0 1 0 0)" id="tagline-3329eacd-a3f7-4970-9aa8-94d0e4bbc252-logo-path-0"  >
<path style="stroke: none; stroke-width: 0; stroke-dasharray: none; stroke-linecap: butt; stroke-dashoffset: 0; stroke-linejoin: miter; stroke-miterlimit: 4; fill: rgb(255,255,255); fill-rule: nonzero; opacity: 1;"  paint-order="stroke"  transform=" translate(-6.6850000000000005, 8.775)" d="M 10.67 0 L 2.7 0 L 2.7 -17.55 L 10.39 -17.55 L 10.39 -15.93 L 4.59 -15.93 L 4.59 -9.72 L 9.32 -9.72 L 9.32 -8.09 L 4.59 -8.09 L 4.59 -1.62 L 10.67 -1.62 L 10.67 0 Z" stroke-linecap="round" />
</g>
</g>
</g>
<g transform="matrix(1.5058823529411764 0 0 1.5058823529411762 91.46032636498467 465.3129330005165)" id="tagline-5bca820c-84cc-4f99-b444-568ff29fffef-logo"  >
<g style=""  paint-order="stroke"   >
		<g transform="matrix(1 0 0 1 0 0)" id="tagline-5bca820c-84cc-4f99-b444-568ff29fffef-logo-path-0"  >
<path style="stroke: none; stroke-width: 0; stroke-dasharray: none; stroke-linecap: butt; stroke-dashoffset: 0; stroke-linejoin: miter; stroke-miterlimit: 4; fill: rgb(255,255,255); fill-rule: nonzero; opacity: 1;"  paint-order="stroke"  transform=" translate(-9.219999999999999, 8.775)" d="M 3.84 0 L 1.21 -17.55 L 3.11 -17.55 L 5.31 -2.73 L 8.21 -17.55 L 10.23 -17.55 L 13.12 -2.73 L 15.33 -17.55 L 17.23 -17.55 L 14.61 0 L 11.96 0 L 9.2 -14.01 L 6.49 0 L 3.84 0 Z" stroke-linecap="round" />
</g>
</g>
</g>
<g transform="matrix(1.5058823529411764 0 0 1.5058823529411762 246.87256852007835 359.35581243575086)" id="tagline-47b40996-2b74-43e5-ac78-5f05afc51d38-logo"  >
<g style=""  paint-order="stroke"   >
		<g transform="matrix(1 0 0 1 0 0)" id="tagline-47b40996-2b74-43e5-ac78-5f05afc51d38-logo-path-0"  >
<path style="stroke: none; stroke-width: 0; stroke-dasharray: none; stroke-linecap: butt; stroke-dashoffset: 0; stroke-linejoin: miter; stroke-miterlimit: 4; fill: rgb(255,255,255); fill-rule: nonzero; opacity: 1;"  paint-order="stroke"  transform=" translate(-81.30999999999999, 8.775)" d="M 7.99 -4.05 L 0.83 -4.05 L 0.83 -5.67 L 7.99 -17.55 L 9.89 -17.55 L 9.89 -5.67 L 11.23 -5.67 L 11.23 -4.05 L 9.89 -4.05 L 9.89 0 L 7.99 0 L 7.99 -4.05 Z M 7.99 -14.42 L 2.73 -5.67 L 7.99 -5.67 L 7.99 -14.42 Z M 16.52 -13.61 L 15.7 -14.99 L 20.13 -17.55 L 22.03 -17.55 L 22.03 -1.62 L 25 -1.62 L 25 0 L 17.17 0 L 17.17 -1.62 L 20.13 -1.62 L 20.13 -15.69 L 16.52 -13.61 Z M 29.87 -3.38 L 29.87 -3.38 L 29.87 -5.67 L 31.77 -5.67 L 31.77 -3.27 Q 31.77 -2.29 32.44 -1.75 Q 33.12 -1.21 34.44 -1.21 Q 35.77 -1.21 36.44 -1.75 Q 37.11 -2.29 37.11 -3.27 L 37.11 -3.27 L 37.11 -6.62 Q 37.11 -7.49 36.47 -8.2 Q 35.82 -8.91 34.71 -8.91 L 34.71 -8.91 L 30.15 -8.91 L 30.15 -17.55 L 38.73 -17.55 L 38.73 -15.93 L 32.04 -15.93 L 32.04 -10.53 L 34.71 -10.53 Q 36.8 -10.53 37.9 -9.48 Q 39 -8.42 39 -6.62 L 39 -6.62 L 39 -3.38 Q 39 0.41 34.44 0.41 Q 29.87 0.41 29.87 -3.38 Z M 51.96 -8.09 L 43.86 -8.09 L 43.86 -9.72 L 51.96 -9.72 L 51.96 -8.09 Z M 56.81 -10.93 L 56.81 -10.93 L 56.81 -14.17 Q 56.81 -15.98 57.96 -16.97 Q 59.1 -17.96 61.38 -17.96 Q 63.66 -17.96 64.82 -16.97 Q 65.98 -15.98 65.98 -14.17 L 65.98 -14.17 L 65.96 -14.15 L 65.98 -14.15 L 65.98 -3.38 Q 65.98 0.41 61.42 0.41 Q 56.86 0.41 56.86 -3.38 L 56.86 -3.38 L 56.86 -5.13 L 58.76 -5.13 L 58.76 -3.27 Q 58.76 -1.21 61.43 -1.21 Q 64.1 -1.21 64.1 -3.27 L 64.1 -3.27 L 64.1 -8.09 Q 63.2 -7.15 61.17 -7.15 Q 59.13 -7.16 57.97 -8.14 Q 56.81 -9.12 56.81 -10.93 Z M 58.69 -14.17 L 58.69 -10.93 Q 58.69 -8.77 61.4 -8.77 Q 64.1 -8.77 64.1 -10.93 L 64.1 -10.93 L 64.1 -14.17 Q 64.1 -16.33 61.4 -16.33 Q 58.69 -16.33 58.69 -14.17 L 58.69 -14.17 Z M 70.57 -10.93 L 70.57 -10.93 L 70.57 -14.17 Q 70.57 -15.98 71.72 -16.97 Q 72.87 -17.96 75.15 -17.96 Q 77.43 -17.96 78.59 -16.97 Q 79.75 -15.98 79.75 -14.17 L 79.75 -14.17 L 79.72 -14.15 L 79.75 -14.15 L 79.75 -3.38 Q 79.75 0.41 75.19 0.41 Q 70.62 0.41 70.62 -3.38 L 70.62 -3.38 L 70.62 -5.13 L 72.52 -5.13 L 72.52 -3.27 Q 72.52 -1.21 75.19 -1.21 Q 77.86 -1.21 77.86 -3.27 L 77.86 -3.27 L 77.86 -8.09 Q 76.97 -7.15 74.93 -7.15 Q 72.89 -7.16 71.73 -8.14 Q 70.57 -9.12 70.57 -10.93 Z M 72.46 -14.17 L 72.46 -10.93 Q 72.46 -8.77 75.16 -8.77 Q 77.86 -8.77 77.86 -10.93 L 77.86 -10.93 L 77.86 -14.17 Q 77.86 -16.33 75.16 -16.33 Q 72.46 -16.33 72.46 -14.17 L 72.46 -14.17 Z M 84.34 -10.93 L 84.34 -10.93 L 84.34 -14.17 Q 84.34 -15.98 85.48 -16.97 Q 86.63 -17.96 88.91 -17.96 Q 91.19 -17.96 92.35 -16.97 Q 93.51 -15.98 93.51 -14.17 L 93.51 -14.17 L 93.48 -14.15 L 93.51 -14.15 L 93.51 -3.38 Q 93.51 0.41 88.95 0.41 Q 84.39 0.41 84.39 -3.38 L 84.39 -3.38 L 84.39 -5.13 L 86.29 -5.13 L 86.29 -3.27 Q 86.29 -1.21 88.96 -1.21 Q 91.63 -1.21 91.63 -3.27 L 91.63 -3.27 L 91.63 -8.09 Q 90.73 -7.15 88.69 -7.15 Q 86.66 -7.16 85.5 -8.14 Q 84.34 -9.12 84.34 -10.93 Z M 86.22 -14.17 L 86.22 -10.93 Q 86.22 -8.77 88.92 -8.77 Q 91.63 -8.77 91.63 -10.93 L 91.63 -10.93 L 91.63 -14.17 Q 91.63 -16.33 88.92 -16.33 Q 86.22 -16.33 86.22 -14.17 L 86.22 -14.17 Z M 106.47 -8.09 L 98.38 -8.09 L 98.38 -9.72 L 106.47 -9.72 L 106.47 -8.09 Z M 111.32 -10.93 L 111.32 -10.93 L 111.32 -14.17 Q 111.32 -15.98 112.47 -16.97 Q 113.62 -17.96 115.9 -17.96 Q 118.18 -17.96 119.34 -16.97 Q 120.5 -15.98 120.5 -14.17 L 120.5 -14.17 L 120.47 -14.15 L 120.5 -14.15 L 120.5 -3.38 Q 120.5 0.41 115.94 0.41 Q 111.38 0.41 111.38 -3.38 L 111.38 -3.38 L 111.38 -5.13 L 113.27 -5.13 L 113.27 -3.27 Q 113.27 -1.21 115.94 -1.21 Q 118.61 -1.21 118.61 -3.27 L 118.61 -3.27 L 118.61 -8.09 Q 117.72 -7.15 115.68 -7.15 Q 113.64 -7.16 112.48 -8.14 Q 111.32 -9.12 111.32 -10.93 Z M 113.21 -14.17 L 113.21 -10.93 Q 113.21 -8.77 115.91 -8.77 Q 118.61 -8.77 118.61 -10.93 L 118.61 -10.93 L 118.61 -14.17 Q 118.61 -16.33 115.91 -16.33 Q 113.21 -16.33 113.21 -14.17 L 113.21 -14.17 Z M 125.09 -10.93 L 125.09 -10.93 L 125.09 -14.17 Q 125.09 -15.98 126.23 -16.97 Q 127.38 -17.96 129.66 -17.96 Q 131.94 -17.96 133.1 -16.97 Q 134.26 -15.98 134.26 -14.17 L 134.26 -14.17 L 134.24 -14.15 L 134.26 -14.15 L 134.26 -3.38 Q 134.26 0.41 129.7 0.41 Q 125.14 0.41 125.14 -3.38 L 125.14 -3.38 L 125.14 -5.13 L 127.04 -5.13 L 127.04 -3.27 Q 127.04 -1.21 129.71 -1.21 Q 132.38 -1.21 132.38 -3.27 L 132.38 -3.27 L 132.38 -8.09 Q 131.48 -7.15 129.44 -7.15 Q 127.41 -7.16 126.25 -8.14 Q 125.09 -9.12 125.09 -10.93 Z M 126.97 -14.17 L 126.97 -10.93 Q 126.97 -8.77 129.67 -8.77 Q 132.38 -8.77 132.38 -10.93 L 132.38 -10.93 L 132.38 -14.17 Q 132.38 -16.33 129.67 -16.33 Q 126.97 -16.33 126.97 -14.17 L 126.97 -14.17 Z M 138.85 -10.93 L 138.85 -10.93 L 138.85 -14.17 Q 138.85 -15.98 140 -16.97 Q 141.14 -17.96 143.42 -17.96 Q 145.71 -17.96 146.87 -16.97 Q 148.03 -15.98 148.03 -14.17 L 148.03 -14.17 L 148 -14.15 L 148.03 -14.15 L 148.03 -3.38 Q 148.03 0.41 143.46 0.41 Q 138.9 0.41 138.9 -3.38 L 138.9 -3.38 L 138.9 -5.13 L 140.8 -5.13 L 140.8 -3.27 Q 140.8 -1.21 143.47 -1.21 Q 146.14 -1.21 146.14 -3.27 L 146.14 -3.27 L 146.14 -8.09 Q 145.24 -7.15 143.21 -7.15 Q 141.17 -7.16 140.01 -8.14 Q 138.85 -9.12 138.85 -10.93 Z M 140.73 -14.17 L 140.73 -10.93 Q 140.73 -8.77 143.44 -8.77 Q 146.14 -8.77 146.14 -10.93 L 146.14 -10.93 L 146.14 -14.17 Q 146.14 -16.33 143.44 -16.33 Q 140.73 -16.33 140.73 -14.17 L 140.73 -14.17 Z M 152.61 -10.93 L 152.61 -10.93 L 152.61 -14.17 Q 152.61 -15.98 153.76 -16.97 Q 154.91 -17.96 157.19 -17.96 Q 159.47 -17.96 160.63 -16.97 Q 161.79 -15.98 161.79 -14.17 L 161.79 -14.17 L 161.76 -14.15 L 161.79 -14.15 L 161.79 -3.38 Q 161.79 0.41 157.23 0.41 Q 152.67 0.41 152.67 -3.38 L 152.67 -3.38 L 152.67 -5.13 L 154.56 -5.13 L 154.56 -3.27 Q 154.56 -1.21 157.23 -1.21 Q 159.9 -1.21 159.9 -3.27 L 159.9 -3.27 L 159.9 -8.09 Q 159.01 -7.15 156.97 -7.15 Q 154.93 -7.16 153.77 -8.14 Q 152.61 -9.12 152.61 -10.93 Z M 154.5 -14.17 L 154.5 -10.93 Q 154.5 -8.77 157.2 -8.77 Q 159.9 -8.77 159.9 -10.93 L 159.9 -10.93 L 159.9 -14.17 Q 159.9 -16.33 157.2 -16.33 Q 154.5 -16.33 154.5 -14.17 L 154.5 -14.17 Z" stroke-linecap="round" />
</g>
</g>
</g>
<g transform="matrix(1.5058823529411764 0 0 1.5058823529411762 268.11521557890205 412.3343727181338)" id="tagline-ac5c4904-24ac-47e1-b8d3-3a396d93476f-logo"  >
<g style=""  paint-order="stroke"   >
		<g transform="matrix(1 0 0 1 0 0)" id="tagline-ac5c4904-24ac-47e1-b8d3-3a396d93476f-logo-path-0"  >
<path style="stroke: none; stroke-width: 0; stroke-dasharray: none; stroke-linecap: butt; stroke-dashoffset: 0; stroke-linejoin: miter; stroke-miterlimit: 4; fill: rgb(255,255,255); fill-rule: nonzero; opacity: 1;"  paint-order="stroke"  transform=" translate(-95.415, 8.775)" d="M 0.54 -3.11 L 0.54 -3.11 L 0.54 -4.86 L 2.43 -4.86 L 2.43 -2.99 Q 2.43 -1.21 4.15 -1.21 L 4.15 -1.21 Q 5.93 -1.21 5.95 -2.99 L 5.95 -2.99 L 5.95 -17.55 L 7.83 -17.55 L 7.83 -3.11 Q 7.83 -1.38 6.86 -0.49 Q 5.88 0.41 4.15 0.41 Q 2.43 0.41 1.48 -0.48 Q 0.54 -1.37 0.54 -3.11 Z M 12.55 -3.38 L 12.55 -3.38 L 12.55 -14.17 Q 12.55 -15.98 13.7 -16.97 Q 14.84 -17.96 17.13 -17.96 Q 19.41 -17.96 20.57 -16.97 Q 21.73 -15.98 21.73 -14.17 L 21.73 -14.17 L 21.73 -3.38 Q 21.73 -1.57 20.58 -0.58 Q 19.43 0.41 17.15 0.41 Q 14.87 0.41 13.71 -0.58 Q 12.55 -1.57 12.55 -3.38 Z M 14.44 -14.17 L 14.44 -3.38 Q 14.44 -1.21 17.14 -1.21 Q 19.84 -1.21 19.84 -3.38 L 19.84 -3.38 L 19.84 -14.17 Q 19.84 -16.33 17.14 -16.33 Q 14.44 -16.33 14.44 -14.17 L 14.44 -14.17 Z M 28.61 0 L 26.72 0 L 26.72 -17.55 L 28.61 -17.55 L 28.61 -9.72 L 33.93 -9.72 L 33.93 -17.55 L 35.82 -17.55 L 35.82 0 L 33.93 0 L 33.93 -8.09 L 28.61 -8.09 L 28.61 0 Z M 43.1 0 L 41.21 0 L 41.21 -17.55 L 42.02 -17.55 L 42.69 -15.79 Q 43.98 -17.96 46.29 -17.96 L 46.29 -17.96 Q 50.26 -17.96 50.26 -14.17 L 50.26 -14.17 L 50.26 0 L 48.37 0 L 48.37 -14.17 Q 48.37 -15.2 47.92 -15.77 Q 47.47 -16.33 46.29 -16.33 Q 45.1 -16.33 44.1 -15.42 Q 43.1 -14.5 43.1 -13.63 L 43.1 -13.63 L 43.1 0 Z M 55.92 -3.86 L 55.92 -3.86 L 55.92 -13.68 Q 55.92 -16.36 57.63 -17.83 Q 59.33 -19.3 62.71 -19.3 Q 66.1 -19.3 67.84 -17.83 Q 69.58 -16.36 69.58 -13.68 L 69.58 -13.68 L 69.58 -7.86 L 66.1 -7.86 L 66.1 -4.38 Q 66.1 -1.38 62.62 -1.38 Q 59.13 -1.37 59.13 -4.38 L 59.13 -4.38 L 59.13 -6.34 Q 59.13 -7.74 59.86 -8.48 Q 60.59 -9.23 62.29 -9.23 L 62.29 -9.23 L 64.38 -9.23 L 64.38 -13.29 Q 64.38 -13.99 63.94 -14.39 Q 63.51 -14.79 62.7 -14.79 L 62.7 -14.79 Q 61.08 -14.79 61.08 -13.29 L 61.08 -13.29 L 61.08 -10.93 L 59.33 -10.93 L 59.33 -13.2 Q 59.33 -16.19 62.71 -16.19 Q 66.1 -16.19 66.1 -13.2 L 66.1 -13.2 L 66.1 -9.23 L 68.19 -9.23 L 68.19 -13.68 Q 68.19 -18.09 62.75 -18.09 Q 57.32 -18.09 57.32 -13.68 L 57.32 -13.68 L 57.32 -3.86 Q 57.32 0.54 62.75 0.54 Q 68.19 0.54 68.19 -3.86 L 68.19 -3.86 L 68.19 -4.54 L 69.58 -4.54 L 69.58 -3.86 Q 69.58 -1.19 67.88 0.28 Q 66.18 1.75 62.78 1.75 Q 59.38 1.75 57.65 0.28 Q 55.92 -1.19 55.92 -3.86 Z M 60.92 -6.42 L 60.92 -4.27 Q 60.92 -2.78 62.65 -2.78 Q 64.38 -2.78 64.38 -4.3 L 64.38 -4.3 L 64.38 -7.86 L 62.16 -7.86 Q 60.92 -7.86 60.92 -6.42 L 60.92 -6.42 Z M 75.11 -3.38 L 75.11 -3.38 L 75.11 -14.17 Q 75.11 -15.98 76.21 -16.97 Q 77.32 -17.96 79.54 -17.96 Q 81.75 -17.96 82.89 -16.97 Q 84.02 -15.98 84.02 -14.17 L 84.02 -14.17 L 84.02 -8.24 L 76.99 -8.24 L 76.99 -3.38 Q 76.99 -1.21 79.56 -1.21 Q 82.13 -1.21 82.13 -3.38 L 82.13 -3.38 L 82.13 -4.86 L 84.02 -4.86 L 84.02 -3.38 Q 84.02 -1.57 82.91 -0.58 Q 81.8 0.41 79.59 0.41 Q 77.37 0.41 76.24 -0.58 Q 75.11 -1.57 75.11 -3.38 Z M 76.99 -14.17 L 76.99 -9.86 L 82.13 -9.86 L 82.13 -14.17 Q 82.13 -16.33 79.56 -16.33 Q 76.99 -16.33 76.99 -14.17 L 76.99 -14.17 Z M 90.9 0 L 89.02 0 L 89.02 -17.55 L 89.82 -17.55 L 90.49 -15.82 Q 91.06 -16.8 91.98 -17.38 Q 92.9 -17.96 93.99 -17.96 L 93.99 -17.96 Q 96.71 -17.96 97.47 -15.98 L 97.47 -15.98 Q 98.76 -17.96 100.87 -17.96 L 100.87 -17.96 Q 104.68 -17.96 104.68 -14.17 L 104.68 -14.17 L 104.68 0 L 102.78 0 L 102.78 -14.17 Q 102.78 -16.33 100.84 -16.33 L 100.84 -16.33 Q 99.71 -16.33 98.75 -15.42 Q 97.78 -14.5 97.78 -13.63 L 97.78 -13.63 L 97.78 0 L 95.9 0 L 95.9 -14.17 Q 95.9 -16.33 93.96 -16.33 L 93.96 -16.33 Q 92.83 -16.33 91.86 -15.46 Q 90.9 -14.58 90.9 -13.71 L 90.9 -13.71 L 90.9 0 Z M 109.25 -3.38 L 109.25 -3.38 L 109.25 -6.08 Q 109.25 -9.86 113.14 -9.86 L 113.14 -9.86 L 116.27 -9.86 L 116.27 -14.28 Q 116.27 -15.25 115.65 -15.79 Q 115.03 -16.33 113.81 -16.33 L 113.81 -16.33 Q 111.41 -16.33 111.41 -14.28 L 111.41 -14.28 L 111.41 -12.7 L 109.52 -12.7 L 109.52 -14.17 Q 109.52 -15.98 110.58 -16.97 Q 111.65 -17.96 113.81 -17.96 Q 115.98 -17.96 117.07 -16.97 Q 118.16 -15.98 118.16 -14.17 L 118.16 -14.17 L 118.16 0 L 117.35 0 L 116.65 -1.73 Q 116.08 -0.75 115.17 -0.17 Q 114.25 0.41 113.14 0.41 L 113.14 0.41 Q 109.25 0.41 109.25 -3.38 Z M 111.14 -6.08 L 111.14 -3.38 Q 111.14 -2.35 111.57 -1.78 Q 112.01 -1.21 113.14 -1.21 Q 114.28 -1.21 115.24 -2.09 Q 116.21 -2.97 116.27 -3.84 L 116.27 -3.84 L 116.27 -8.24 L 113.14 -8.24 Q 112.01 -8.24 111.57 -7.67 Q 111.14 -7.11 111.14 -6.08 L 111.14 -6.08 Z M 125.18 0 L 123.29 0 L 123.29 -17.55 L 125.18 -17.55 L 125.18 0 Z M 137.4 0 L 130.57 0 L 130.57 -17.55 L 132.46 -17.55 L 132.46 -1.62 L 137.4 -1.62 L 137.4 0 Z M 142.65 0 L 140.22 0 L 140.22 -2.97 L 142.65 -2.97 L 142.65 0 Z M 147.23 -3.38 L 147.23 -3.38 L 147.23 -14.17 Q 147.23 -15.98 148.34 -16.97 Q 149.45 -17.96 151.66 -17.96 Q 153.88 -17.96 155.01 -16.97 Q 156.15 -15.98 156.15 -14.17 L 156.15 -14.17 L 156.15 -11.61 L 154.26 -11.61 L 154.26 -14.17 Q 154.26 -16.33 151.69 -16.33 Q 149.12 -16.33 149.12 -14.17 L 149.12 -14.17 L 149.12 -3.38 Q 149.12 -1.21 151.69 -1.21 Q 154.26 -1.21 154.26 -3.38 L 154.26 -3.38 L 154.26 -4.86 L 156.15 -4.86 L 156.15 -3.38 Q 156.15 -1.57 155.04 -0.58 Q 153.93 0.41 151.72 0.41 Q 149.5 0.41 148.37 -0.58 Q 147.23 -1.57 147.23 -3.38 Z M 160.46 -3.38 L 160.46 -3.38 L 160.46 -14.17 Q 160.46 -15.98 161.6 -16.97 Q 162.75 -17.96 165.03 -17.96 Q 167.31 -17.96 168.47 -16.97 Q 169.63 -15.98 169.63 -14.17 L 169.63 -14.17 L 169.63 -3.38 Q 169.63 -1.57 168.49 -0.58 Q 167.34 0.41 165.06 0.41 Q 162.78 0.41 161.62 -0.58 Q 160.46 -1.57 160.46 -3.38 Z M 162.34 -14.17 L 162.34 -3.38 Q 162.34 -1.21 165.05 -1.21 Q 167.75 -1.21 167.75 -3.38 L 167.75 -3.38 L 167.75 -14.17 Q 167.75 -16.33 165.05 -16.33 Q 162.34 -16.33 162.34 -14.17 L 162.34 -14.17 Z M 176.52 0 L 174.63 0 L 174.63 -17.55 L 175.43 -17.55 L 176.11 -15.82 Q 176.67 -16.8 177.6 -17.38 Q 178.52 -17.96 179.6 -17.96 L 179.6 -17.96 Q 182.33 -17.96 183.08 -15.98 L 183.08 -15.98 Q 184.37 -17.96 186.48 -17.96 L 186.48 -17.96 Q 190.29 -17.96 190.29 -14.17 L 190.29 -14.17 L 190.29 0 L 188.39 0 L 188.39 -14.17 Q 188.39 -16.33 186.46 -16.33 L 186.46 -16.33 Q 185.32 -16.33 184.36 -15.42 Q 183.4 -14.5 183.4 -13.63 L 183.4 -13.63 L 183.4 0 L 181.51 0 L 181.51 -14.17 Q 181.51 -16.33 179.57 -16.33 L 179.57 -16.33 Q 178.44 -16.33 177.48 -15.46 Q 176.52 -14.58 176.52 -13.71 L 176.52 -13.71 L 176.52 0 Z" stroke-linecap="round" />
</g>
</g>
</g>
<g transform="matrix(1.5058823529411764 0 0 1.5058823529411762 232.45933322596068 465.3129330005165)" id="tagline-fa96e0de-1c7c-4c54-93d4-508322e5bc46-logo"  >
<g style=""  paint-order="stroke"   >
		<g transform="matrix(1 0 0 1 0 0)" id="tagline-fa96e0de-1c7c-4c54-93d4-508322e5bc46-logo-path-0"  >
<path style="stroke: none; stroke-width: 0; stroke-dasharray: none; stroke-linecap: butt; stroke-dashoffset: 0; stroke-linejoin: miter; stroke-miterlimit: 4; fill: rgb(255,255,255); fill-rule: nonzero; opacity: 1;"  paint-order="stroke"  transform=" translate(-71.73499999999999, 8.775)" d="M 3.84 0 L 1.21 -17.55 L 3.11 -17.55 L 5.31 -2.73 L 8.21 -17.55 L 10.23 -17.55 L 13.12 -2.73 L 15.33 -17.55 L 17.23 -17.55 L 14.61 0 L 11.96 0 L 9.2 -14.01 L 6.49 0 L 3.84 0 Z M 20.72 -3.38 L 20.72 -3.38 L 20.72 -14.17 Q 20.72 -15.98 21.83 -16.97 Q 22.94 -17.96 25.15 -17.96 Q 27.37 -17.96 28.5 -16.97 Q 29.64 -15.98 29.64 -14.17 L 29.64 -14.17 L 29.64 -8.24 L 22.61 -8.24 L 22.61 -3.38 Q 22.61 -1.21 25.18 -1.21 Q 27.75 -1.21 27.75 -3.38 L 27.75 -3.38 L 27.75 -4.86 L 29.64 -4.86 L 29.64 -3.38 Q 29.64 -1.57 28.53 -0.58 Q 27.42 0.41 25.21 0.41 Q 22.99 0.41 21.86 -0.58 Q 20.72 -1.57 20.72 -3.38 Z M 22.61 -14.17 L 22.61 -9.86 L 27.75 -9.86 L 27.75 -14.17 Q 27.75 -16.33 25.18 -16.33 Q 22.61 -16.33 22.61 -14.17 L 22.61 -14.17 Z M 38.98 0 L 34.63 0 L 34.63 -17.55 L 38.71 -17.55 Q 40.82 -17.55 41.91 -16.55 Q 43 -15.56 43 -13.76 L 43 -13.76 L 43 -12.16 Q 43 -9.86 41.08 -9.2 L 41.08 -9.2 Q 43.27 -8.61 43.27 -6.21 L 43.27 -6.21 L 43.27 -3.78 Q 43.27 -1.98 42.19 -0.99 Q 41.11 0 38.98 0 L 38.98 0 Z M 36.52 -8.5 L 36.52 -1.62 L 38.98 -1.62 Q 41.38 -1.62 41.38 -3.78 L 41.38 -3.78 L 41.38 -6.21 Q 41.38 -7.24 40.76 -7.87 Q 40.14 -8.5 38.98 -8.5 L 38.98 -8.5 L 36.52 -8.5 Z M 36.52 -15.93 L 36.52 -9.86 L 38.71 -9.86 Q 39.89 -9.86 40.5 -10.48 Q 41.11 -11.1 41.11 -12.16 L 41.11 -12.16 L 41.11 -13.76 Q 41.11 -14.79 40.49 -15.36 Q 39.87 -15.93 38.71 -15.93 L 38.71 -15.93 L 36.52 -15.93 Z M 47.72 -3.38 L 47.72 -3.38 L 47.72 -5.67 L 49.61 -5.67 L 49.61 -3.27 Q 49.61 -2.29 50.29 -1.75 Q 50.97 -1.21 52.29 -1.21 Q 53.6 -1.21 54.28 -1.75 Q 54.96 -2.29 54.96 -3.22 Q 54.96 -4.15 54.76 -4.71 Q 54.55 -5.26 53.93 -5.88 L 53.93 -5.88 L 49.17 -10.53 Q 48.34 -11.36 48.03 -12.16 Q 47.72 -12.96 47.72 -14.17 L 47.72 -14.17 Q 47.72 -15.98 48.85 -16.97 Q 49.97 -17.96 52.23 -17.96 L 52.23 -17.96 Q 56.58 -17.96 56.58 -14.17 L 56.58 -14.17 L 56.58 -11.88 L 54.69 -11.88 L 54.69 -14.28 Q 54.69 -15.25 54.05 -15.79 Q 53.42 -16.33 52.15 -16.33 Q 50.88 -16.33 50.24 -15.79 Q 49.61 -15.25 49.61 -14.31 Q 49.61 -13.37 49.8 -12.83 Q 49.99 -12.29 50.64 -11.69 L 50.64 -11.69 L 55.48 -7.05 Q 56.25 -6.18 56.55 -5.39 Q 56.85 -4.59 56.85 -3.38 L 56.85 -3.38 Q 56.85 0.41 52.29 0.41 Q 47.72 0.41 47.72 -3.38 Z M 63.58 0 L 61.7 0 L 61.7 -17.55 L 63.58 -17.55 L 63.58 0 Z M 68.57 -3.11 L 68.57 -3.11 L 68.57 -17.55 L 74.51 -17.55 L 74.51 -15.93 L 70.45 -15.93 L 70.45 -2.99 Q 70.45 -2.24 70.85 -1.73 Q 71.24 -1.21 71.96 -1.21 Q 72.67 -1.21 73.05 -1.71 Q 73.43 -2.21 73.43 -2.99 L 73.43 -2.99 L 73.43 -6.21 L 75.32 -6.21 L 75.32 -3.11 Q 75.32 -1.41 74.41 -0.5 Q 73.51 0.41 71.97 0.41 Q 70.43 0.41 69.5 -0.49 Q 68.57 -1.4 68.57 -3.11 Z M 78.69 -3.38 L 78.69 -3.38 L 78.69 -14.17 Q 78.69 -15.98 79.8 -16.97 Q 80.91 -17.96 83.12 -17.96 Q 85.34 -17.96 86.47 -16.97 Q 87.6 -15.98 87.6 -14.17 L 87.6 -14.17 L 87.6 -8.24 L 80.58 -8.24 L 80.58 -3.38 Q 80.58 -1.21 83.15 -1.21 Q 85.72 -1.21 85.72 -3.38 L 85.72 -3.38 L 85.72 -4.86 L 87.6 -4.86 L 87.6 -3.38 Q 87.6 -1.57 86.5 -0.58 Q 85.39 0.41 83.18 0.41 Q 80.96 0.41 79.83 -0.58 Q 78.69 -1.57 78.69 -3.38 Z M 80.58 -14.17 L 80.58 -9.86 L 85.72 -9.86 L 85.72 -14.17 Q 85.72 -16.33 83.15 -16.33 Q 80.58 -16.33 80.58 -14.17 L 80.58 -14.17 Z M 94.62 0 L 92.19 0 L 92.19 -2.97 L 94.62 -2.97 L 94.62 0 Z M 99.21 -3.38 L 99.21 -3.38 L 99.21 -14.17 Q 99.21 -15.98 100.31 -16.97 Q 101.42 -17.96 103.64 -17.96 Q 105.85 -17.96 106.98 -16.97 Q 108.12 -15.98 108.12 -14.17 L 108.12 -14.17 L 108.12 -11.61 L 106.23 -11.61 L 106.23 -14.17 Q 106.23 -16.33 103.66 -16.33 Q 101.09 -16.33 101.09 -14.17 L 101.09 -14.17 L 101.09 -3.38 Q 101.09 -1.21 103.66 -1.21 Q 106.23 -1.21 106.23 -3.38 L 106.23 -3.38 L 106.23 -4.86 L 108.12 -4.86 L 108.12 -3.38 Q 108.12 -1.57 107.01 -0.58 Q 105.9 0.41 103.69 0.41 Q 101.47 0.41 100.34 -0.58 Q 99.21 -1.57 99.21 -3.38 Z M 112.43 -3.38 L 112.43 -3.38 L 112.43 -14.17 Q 112.43 -15.98 113.58 -16.97 Q 114.72 -17.96 117 -17.96 Q 119.29 -17.96 120.45 -16.97 Q 121.61 -15.98 121.61 -14.17 L 121.61 -14.17 L 121.61 -3.38 Q 121.61 -1.57 120.46 -0.58 Q 119.31 0.41 117.03 0.41 Q 114.75 0.41 113.59 -0.58 Q 112.43 -1.57 112.43 -3.38 Z M 114.31 -14.17 L 114.31 -3.38 Q 114.31 -1.21 117.02 -1.21 Q 119.72 -1.21 119.72 -3.38 L 119.72 -3.38 L 119.72 -14.17 Q 119.72 -16.33 117.02 -16.33 Q 114.31 -16.33 114.31 -14.17 L 114.31 -14.17 Z M 128.49 0 L 126.6 0 L 126.6 -17.55 L 127.41 -17.55 L 128.08 -15.82 Q 128.65 -16.8 129.57 -17.38 Q 130.49 -17.96 131.57 -17.96 L 131.57 -17.96 Q 134.3 -17.96 135.05 -15.98 L 135.05 -15.98 Q 136.34 -17.96 138.45 -17.96 L 138.45 -17.96 Q 142.26 -17.96 142.26 -14.17 L 142.26 -14.17 L 142.26 0 L 140.37 0 L 140.37 -14.17 Q 140.37 -16.33 138.43 -16.33 L 138.43 -16.33 Q 137.29 -16.33 136.33 -15.42 Q 135.37 -14.5 135.37 -13.63 L 135.37 -13.63 L 135.37 0 L 133.48 0 L 133.48 -14.17 Q 133.48 -16.33 131.55 -16.33 L 131.55 -16.33 Q 130.41 -16.33 129.45 -15.46 Q 128.49 -14.58 128.49 -13.71 L 128.49 -13.71 L 128.49 0 Z" stroke-linecap="round" />
</g>
</g>
</g>
<g transform="matrix(0.6625882352941176 0 0 0.6625882352941176 767.8703984672097 299.67058823529413)" id="maker-logo"  >
<g style=""  paint-order="stroke"   >
		<g transform="matrix(1 0 0 1 0 0)" id="background-logo"  >
<rect style="stroke: none; stroke-width: 0; stroke-dasharray: none; stroke-linecap: butt; stroke-dashoffset: 0; stroke-linejoin: miter; stroke-miterlimit: 4; fill: rgb(0,0,0); fill-rule: nonzero; opacity: 0; visibility: hidden;"  paint-order="stroke"  x="-325" y="-260" rx="0" ry="0" width="650" height="520" />
</g>
		<g transform="matrix(0.8544747818820682 0 0 0.8544747818820682 -188.61519719531458 -24.424643159229333)" id="logo-logo"  >
<g style=""  paint-order="stroke"   >
		<g transform="matrix(0.19513451330135556 0 0 0.19513451330135556 0 0)"  >
<linearGradient id="SVGID_2_1_1_1_107207" gradientUnits="userSpaceOnUse" gradientTransform="matrix(1 0 0 1 0.0029614063183771577 -0.005296382653057208)"  x1="0" y1="0" x2="0" y2="907">
<stop offset="0%" style="stop-color:rgb(180,236,81);stop-opacity: 1"/>
<stop offset="100%" style="stop-color:rgb(66,147,33);stop-opacity: 1"/>
</linearGradient>
<path style="stroke: none; stroke-width: 1; stroke-dasharray: none; stroke-linecap: butt; stroke-dashoffset: 0; stroke-linejoin: miter; stroke-miterlimit: 4; fill: url(#SVGID_2_1_1_1_107207); fill-rule: evenodd; opacity: 1;"  paint-order="stroke"  transform=" translate(-364.7400319730465, -453.54107961932436)" d="M 384.69 907.06 C 384.69 907.06 419.87 908.2199999999999 468.58 895.4599999999999 C 449.29999999999995 760.1399999999999 370.36 709.3299999999999 370.36 709.3299999999999 C 434.69 718.8799999999999 476.17 825.5899999999999 495 887.4999999999999 C 533.93 874.1999999999999 573.14 870.7899999999998 656.02 779.7499999999999 C 718.04 713.3699999999999 748.9 538.8299999999999 716.3199999999999 488.1399999999999 C 683.7399999999999 437.4499999999999 666.2399999999999 548.3599999999999 613.56 639.8499999999999 C 560.88 731.3399999999999 408.39 734.1199999999999 388.9799999999999 634.3 C 369.5699999999999 534.49 476.8799999999999 429.26 682.05 456.98999999999995 C 721.26 462.92999999999995 757.8 371.03 588.68 340.8299999999999 C 529.9799999999999 330.3499999999999 430.5899999999999 343.17999999999995 374.48999999999995 386.7099999999999 C 374.48999999999995 386.7099999999999 435.77 277.3599999999999 542.66 225.5999999999999 C 679.25 159.4699999999999 656.8299999999999 38.90999999999991 483.85999999999996 127.73999999999991 C 406.28999999999996 167.5699999999999 321.78999999999996 236.7999999999999 279.31999999999994 319.1699999999999 C 279.31999999999994 319.1699999999999 291.0799999999999 236.52999999999992 392.0999999999999 114.39999999999989 C 493.1099999999999 -7.7300000000001035 426.2699999999999 -9.190000000000111 371.7699999999999 7.579999999999899 C 317.25999999999993 24.3499999999999 195.4099999999999 133.4499999999999 149.28999999999994 309.54999999999995 C 149.28999999999994 309.54999999999995 131.39999999999992 253.59999999999997 194.65999999999994 118.58999999999995 C 259.73999999999995 -20.31000000000006 109.83999999999995 24.29999999999994 42.07999999999993 200.93999999999994 C -77.16000000000007 511.7799999999999 63.229999999999926 893.67 384.68999999999994 907.06 z M 331.57 665.7099999999999 C 331.57 665.7099999999999 274.85 558.0899999999999 160.69 532.6399999999999 C 160.69 532.6399999999999 247.95 558.8199999999998 331.57 665.7099999999998 z M 418.9 660.5899999999999 C 418.9 660.5899999999999 495.65999999999997 514.9399999999999 650.17 480.4999999999999 C 650.17 480.4999999999999 532.0699999999999 515.9299999999998 418.9 660.5899999999999 z M 91.73999999999995 514.5899999999999 C 154.94999999999996 589.2499999999999 178.23999999999995 699.8999999999999 279.87999999999994 716.5099999999999 C 334.87999999999994 725.4999999999999 380.7199999999999 669.2999999999998 360.94999999999993 609.6699999999998 C 327.3599999999999 508.29999999999984 179.69999999999993 484.0699999999998 91.73999999999995 514.5899999999998 z" stroke-linecap="round" />
</g>
</g>
</g>
		<g transform="matrix(1 0 0 1 55.7816872542208 -12.008266205613058)" id="text-logo"  >
<g style=""  paint-order="stroke"   >
		<g transform="matrix(1 0 0 1 0 0)" id="text-logo-path-0"  >
<path style="stroke: rgb(255,255,255); stroke-width: 3.599999999999999; stroke-dasharray: none; stroke-linecap: butt; stroke-dashoffset: 0; stroke-linejoin: miter; stroke-miterlimit: 4; fill: rgb(255,255,255); fill-rule: nonzero; opacity: 1;"  paint-order="stroke"  transform=" translate(-159.045, 22.049999999999997)" d="M 21.36 0.38 C 32.38 0.38 41.27 -8.32 41.27 -22.05 C 41.27 -35.78 32.38 -44.48 21.36 -44.48 C 10.33 -44.48 1.39 -35.78 1.39 -22.05 C 1.39 -8.32 10.33 0.38 21.36 0.38 Z M 4.79 -22.05 C 4.79 -35.03 12.22 -43.09 21.36 -43.09 C 30.49 -43.09 37.86 -35.03 37.86 -22.05 C 37.86 -9.07 30.49 -1.01 21.36 -1.01 C 12.22 -1.01 4.79 -9.07 4.79 -22.05 Z M 84.55 0 L 85.81 0 L 85.81 -44.1 L 84.55 -44.1 L 84.55 -4.66 L 56.89 -42.34 L 55.57 -44.1 L 54.31 -44.1 L 54.31 0 L 55.57 0 L 55.57 -39.19 Z M 98.78 0 L 123.98 0 L 123.98 -0.63 L 101.93 -0.63 L 101.93 -22.05 L 117.68 -22.05 L 117.68 -22.68 L 101.93 -22.68 L 101.93 -43.47 L 123.98 -43.47 L 123.98 -44.1 L 98.78 -44.1 Z M 171.74 0 L 174.89 0 L 174.89 -42.84 L 189.06 -42.84 L 189.06 -44.1 L 157.56 -44.1 L 157.56 -42.84 L 171.74 -42.84 Z M 217.85 0.38 C 226.49 0.38 233.54 -4.6 233.54 -12.1 L 233.54 -44.1 L 232.28 -44.1 L 232.28 -12.29 C 232.28 -5.48 226.17 -1.01 218.8 -1.01 C 211.24 -1.01 205.19 -5.48 205.19 -12.29 L 205.19 -44.1 L 202.04 -44.1 L 202.04 -12.1 C 202.04 -4.6 209.1 0.38 217.85 0.38 Z M 275.31 0 L 278.46 0 L 268.19 -21.67 C 273.29 -22.74 277.14 -27.28 277.14 -32.89 C 277.14 -39.06 272.1 -44.1 265.86 -44.1 L 247.78 -44.1 L 247.78 0 L 250.93 0 L 250.93 -21.42 L 265.17 -21.42 Z M 250.93 -22.68 L 250.93 -42.84 L 263.72 -42.84 C 270.52 -42.84 273.74 -38.37 273.74 -32.82 C 273.74 -27.15 270.52 -22.68 263.72 -22.68 Z M 291.5 0 L 294.65 0 L 294.65 -21.42 L 310.4 -21.42 L 310.4 -22.68 L 294.65 -22.68 L 294.65 -42.84 L 316.7 -42.84 L 316.7 -44.1 L 291.5 -44.1 Z" stroke-linecap="round" />
</g>
</g>
</g>
		<g transform="matrix(1 0 0 1 10.024437981347575 40.89650952132808)" id="tagline-dc6fcac2-150e-4c85-9e29-b8c82180585c-logo"  >
<g style=""  paint-order="stroke"   >
		<g transform="matrix(1 0 0 1 0 0)" id="tagline-dc6fcac2-150e-4c85-9e29-b8c82180585c-logo-path-0"  >
<path style="stroke: none; stroke-width: 0; stroke-dasharray: none; stroke-linecap: butt; stroke-dashoffset: 0; stroke-linejoin: miter; stroke-miterlimit: 4; fill: rgb(217,217,216); fill-rule: nonzero; opacity: 1;"  paint-order="stroke"  transform=" translate(-106.88000000000001, 6.5)" d="M 8.02 0.28 C 13.06 0.28 14.98 -2.8 14.98 -6.7 C 14.98 -7.52 14.98 -7.88 14.96 -8.5 L 7.92 -8.5 L 7.92 -6.7 L 13.04 -6.7 C 13.04 -3.66 11.82 -1.52 8.02 -1.52 C 4.24 -1.52 2.94 -4.04 2.94 -7.58 C 2.94 -11.1 4.24 -13.66 8.02 -13.66 C 10.8 -13.66 12.18 -12.5 12.7 -11.1 L 14.72 -11.1 C 14.32 -12.4 13.1 -15.44 8.02 -15.44 C 2.98 -15.44 1.04 -11.88 1.04 -7.58 C 1.04 -3.28 2.98 0.28 8.02 0.28 Z M 22.48 0 L 22.48 -15.04 L 20.48 -15.04 L 20.48 0 Z M 35.4 0 L 40.84 -15.04 L 38.78 -15.04 L 34.16 -2.48 L 29.56 -15.04 L 27.46 -15.04 L 32.94 0 Z M 47.58 -6.8 L 55.06 -6.8 L 55.06 -8.6 L 47.58 -8.6 L 47.58 -13.22 L 55.52 -13.22 L 55.52 -15.04 L 45.7 -15.04 L 45.7 0 L 55.58 0 L 55.58 -1.8 L 47.58 -1.8 Z M 75.4 0.28 C 80.54 0.28 81.08 -2.56 81.08 -4.64 L 81.08 -15.04 L 79.16 -15.04 L 79.16 -5.14 C 79.16 -2.68 78.28 -1.58 75.4 -1.58 C 72.34 -1.58 71.64 -2.56 71.64 -5.14 L 71.64 -15.04 L 69.7 -15.04 L 69.7 -4.64 C 69.7 -2.56 70.26 0.28 75.4 0.28 Z M 88.84 0 L 88.84 -5.9 L 91.64 -5.9 C 95.34 -5.9 97.34 -6.98 97.34 -10.48 C 97.34 -13.94 95.32 -15.04 91.64 -15.04 L 86.96 -15.04 L 86.96 0 Z M 88.84 -13.26 L 91.84 -13.26 C 94.42 -13.26 95.44 -12.6 95.44 -10.5 C 95.44 -8.4 94.52 -7.7 91.9 -7.7 L 88.84 -7.7 Z M 102.4 2.44 C 102.76 2.44 105.14 1.48 105.14 -1.1 C 105.14 -1.9 104.58 -2.4 103.84 -2.4 C 103.1 -2.4 102.56 -1.72 102.56 -1.1 C 102.56 0.22 103.66 0.3 102.22 2.44 Z M 121.24 0 L 121.24 -5.9 L 124.04 -5.9 C 127.74 -5.9 129.74 -6.98 129.74 -10.48 C 129.74 -13.94 127.72 -15.04 124.04 -15.04 L 119.36 -15.04 L 119.36 0 Z M 121.24 -13.26 L 124.24 -13.26 C 126.82 -13.26 127.84 -12.6 127.84 -10.5 C 127.84 -8.4 126.92 -7.7 124.3 -7.7 L 121.24 -7.7 Z M 137.1 0 L 137.1 -15.04 L 135.1 -15.04 L 135.1 0 Z M 149.46 0.28 C 151.74 0.28 153.56 -0.52 154.68 -1.66 L 153.32 -3.02 C 152.5 -2.1 151.04 -1.5 149.46 -1.5 C 145.78 -1.5 144.38 -3.94 144.38 -7.58 C 144.38 -11.2 145.78 -13.66 149.46 -13.66 C 151.24 -13.66 152.3 -13.12 153.12 -12.2 L 154.54 -13.6 C 153.42 -14.74 151.74 -15.44 149.46 -15.44 C 144.42 -15.44 142.48 -11.88 142.48 -7.58 C 142.48 -3.28 144.42 0.28 149.46 0.28 Z M 171.16 0 L 163.82 -7.8 L 170.88 -15.04 L 168.48 -15.04 L 161.62 -8.08 L 161.62 -15.04 L 159.74 -15.04 L 159.74 0 L 161.62 0 L 161.62 -5.54 L 162.56 -6.5 L 168.72 0 Z M 190.78 0.28 C 195.92 0.28 196.46 -2.56 196.46 -4.64 L 196.46 -15.04 L 194.54 -15.04 L 194.54 -5.14 C 194.54 -2.68 193.66 -1.58 190.78 -1.58 C 187.72 -1.58 187.02 -2.56 187.02 -5.14 L 187.02 -15.04 L 185.08 -15.04 L 185.08 -4.64 C 185.08 -2.56 185.64 0.28 190.78 0.28 Z M 204.22 0 L 204.22 -5.9 L 207.02 -5.9 C 210.72 -5.9 212.72 -6.98 212.72 -10.48 C 212.72 -13.94 210.7 -15.04 207.02 -15.04 L 202.34 -15.04 L 202.34 0 Z M 204.22 -13.26 L 207.22 -13.26 C 209.8 -13.26 210.82 -12.6 210.82 -10.5 C 210.82 -8.4 209.9 -7.7 207.28 -7.7 L 204.22 -7.7 Z" stroke-linecap="round" />
</g>
</g>
</g>
</g>
</g>
</svg>